<svg viewBox="0 0 72 72" version="1.1" xmlns="http://www.w3.org/2000/svg" style="fill: #F59500;"><path fill-rule="evenodd" d="M37.8500653,9.45359612 C38.5754465,9.83211082 39.1673047,10.423969 39.5458194,11.1493503 L63.5493937,57.1495249 C64.5713828,59.1080532 63.8121678,61.5242401 61.8536395,62.5462293 C61.2823681,62.8443272 60.647535,63 60.0031644,63 L11.9960159,63 C9.78687694,63 7.99601593,61.209139 7.99601593,59 C7.99601593,58.3556294 8.15168875,57.7207964 8.44978668,57.1495249 L32.4533609,11.1493503 C33.4753501,9.19082195 35.8915369,8.43160694 37.8500653,9.45359612 Z M35.9999678,47.4867582 C34.4089636,47.4867582 33.1191999,48.7915555 33.1191999,50.4011045 C33.1191999,52.0106535 34.4089636,53.3154508 35.9999678,53.3154508 C37.590972,53.3154508 38.8807357,52.0106535 38.8807357,50.4011045 C38.8807357,48.7915555 37.590972,47.4867582 35.9999678,47.4867582 Z M36.0155861,26.1149425 C35.9674805,26.1151898 35.9193888,26.1166469 35.8713565,26.1193125 C34.2891864,26.2071155 33.0777625,27.5608962 33.1655655,29.1430663 L33.1655655,29.1430663 L33.8630741,41.7118532 C33.922239,42.7779767 34.8084448,43.6096018 35.8761737,43.6009677 L35.8761737,43.6009677 L35.9561659,43.6003209 C37.0001426,43.5918789 37.861996,42.7818539 37.9350864,41.7404047 L37.9350864,41.7404047 L38.8215573,29.1092723 C38.8264694,29.0392808 38.8287475,28.9691295 38.8283868,28.8989668 C38.8204404,27.3534463 37.5611067,26.1069961 36.0155861,26.1149425 Z"></path></svg>